<svg class="google-icon" xmlns="http://www.w3.org/2000/svg" viewBox="0 0 21 22">
            <path d="M21.0009 10.833C21.0009 9.96998 20.9289 9.33997 20.7739 8.68597H10.715V12.583H16.6199C16.5009 13.551 15.858 15.01 14.429 15.99L14.4089 16.12L17.59 18.535L17.8099 18.556C19.8339 16.725 21.0009 14.03 21.0009 10.833Z" fill="#4285F4"/>
            <path d="M10.7139 21.1C13.6069 21.1 16.035 20.167 17.809 18.557L14.4279 15.99C13.5229 16.608 12.3089 17.04 10.7139 17.04C7.88093 17.04 5.47596 15.208 4.61896 12.677L4.49292 12.687L1.18591 15.195L1.14294 15.313C2.90394 18.743 6.52293 21.1 10.7139 21.1Z" fill="#34A853"/>
            <path d="M4.62091 12.677C4.39491 12.023 4.26392 11.323 4.26392 10.6C4.26392 9.87698 4.39495 9.17698 4.60895 8.52298L4.60297 8.38397L1.25397 5.83597L1.14496 5.88696C0.418958 7.30996 0.00195312 8.90798 0.00195312 10.6C0.00195312 12.292 0.418958 13.89 1.14496 15.313L4.62091 12.677Z" fill="#FBBC05"/>
            <path d="M10.7139 4.15997C12.7259 4.15997 14.0829 5.01196 14.8569 5.72296L17.8809 2.82999C16.0239 1.13799 13.6069 0.0999756 10.7139 0.0999756C6.52393 0.0999756 2.90394 2.45696 1.14294 5.88696L4.60693 8.52298C5.47593 5.99198 7.88093 4.15997 10.7139 4.15997Z" fill="#EB4335"/>
        </svg>