<?xml version="1.0" encoding="UTF-8"?>
<!DOCTYPE svg PUBLIC "-//W3C//DTD SVG 1.1//EN" "http://www.w3.org/Graphics/SVG/1.1/DTD/svg11.dtd">
<!-- Creator: CorelDRAW -->
<svg xmlns="http://www.w3.org/2000/svg" xml:space="preserve" width="353px" height="500px" version="1.1" style="shape-rendering:geometricPrecision; text-rendering:geometricPrecision; image-rendering:optimizeQuality; fill-rule:evenodd; clip-rule:evenodd"
viewBox="0 0 353 499.24"
 xmlns:xlink="http://www.w3.org/1999/xlink"
 xmlns:xodm="http://www.corel.com/coreldraw/odm/2003">
 <defs>
  <style type="text/css">
   <![CDATA[
    .fil0 {fill:#FEFEFE}
   ]]>
  </style>
 </defs>
 <g id="Camada_x0020_1">
  <metadata id="CorelCorpID_0Corel-Layer"/>
  <path class="fil0" d="M133.24 -429.69c-2.69,-5.01 -4.22,-10.72 -4.22,-16.8 0,-19.64 15.92,-35.55 35.56,-35.55 1.2,0 2.39,0.06 3.56,0.17 0,0.07 0,0.13 0,0.19l0 7.73c0,0.15 0,0.37 0.02,0.64 0,0.16 0.02,0.32 0.03,0.5 -0.01,0.26 -0.02,0.55 -0.03,0.89 -0.02,0.46 -0.02,0.8 -0.02,1l0 0 0 18.51c0,5.22 -0.94,9.78 -2.61,13.57 -1.79,4.04 -4.41,7.19 -7.63,9.33 -3.22,2.14 -7.04,3.28 -11.23,3.28 -3.62,0 -7.53,-0.85 -11.57,-2.64l-1.86 -0.82zm1.23 2.23c6.32,9.96 17.44,16.58 30.11,16.58 19.66,0 35.6,-15.95 35.6,-35.61l0 -27.46 0 -7.73c0,-0.09 0,-0.19 0,-0.28 0,-0.03 0,-0.06 0,-0.09 -0.01,-0.07 -0.01,-0.14 -0.01,-0.21 0,-0.03 0,-0.06 -0.01,-0.08 0,-0.08 -0.01,-0.16 -0.01,-0.24 0,-0.02 0,-0.03 0,-0.05 -0.01,-0.09 -0.02,-0.18 -0.03,-0.28 0,-0.02 0,-0.05 -0.01,-0.07 0,-0.07 -0.01,-0.14 -0.02,-0.21 0,-0.03 -0.01,-0.06 -0.01,-0.09 -0.01,-0.07 -0.02,-0.14 -0.03,-0.21 -0.01,-0.02 -0.01,-0.05 -0.01,-0.07 -0.02,-0.09 -0.03,-0.18 -0.05,-0.27 0,-0.02 -0.01,-0.04 -0.01,-0.07 -0.01,-0.07 -0.03,-0.14 -0.04,-0.21 -0.01,-0.03 -0.01,-0.06 -0.02,-0.09 -0.01,-0.06 -0.03,-0.13 -0.04,-0.19 -0.01,-0.03 -0.01,-0.05 -0.02,-0.08 -0.02,-0.09 -0.04,-0.18 -0.06,-0.26 -0.01,-0.02 -0.01,-0.03 -0.01,-0.04 -0.02,-0.08 -0.05,-0.15 -0.07,-0.23 0,-0.03 -0.01,-0.05 -0.02,-0.08 -0.02,-0.07 -0.04,-0.13 -0.06,-0.19 -0.01,-0.03 -0.01,-0.06 -0.02,-0.08 -0.03,-0.08 -0.05,-0.16 -0.08,-0.24 0,0 0,-0.01 -0.01,-0.02 -0.03,-0.09 -0.06,-0.17 -0.09,-0.26 -0.01,-0.02 -0.02,-0.05 -0.03,-0.07 -0.02,-0.06 -0.04,-0.13 -0.07,-0.19 -0.01,-0.02 -0.02,-0.05 -0.03,-0.08 -0.02,-0.06 -0.05,-0.13 -0.08,-0.2 -0.01,-0.02 -0.01,-0.03 -0.02,-0.05 -0.04,-0.08 -0.07,-0.16 -0.11,-0.25 -0.01,-0.02 -0.02,-0.04 -0.03,-0.06 -0.03,-0.06 -0.06,-0.12 -0.09,-0.19l-0.03 -0.07c-0.03,-0.06 -0.06,-0.12 -0.09,-0.18 -0.01,-0.02 -0.03,-0.05 -0.04,-0.07 -0.04,-0.08 -0.08,-0.16 -0.12,-0.23 -0.01,-0.02 -0.02,-0.04 -0.03,-0.05 -0.03,-0.06 -0.07,-0.13 -0.1,-0.19 -0.02,-0.03 -0.03,-0.05 -0.05,-0.07 -0.03,-0.06 -0.06,-0.12 -0.1,-0.17 -0.01,-0.02 -0.02,-0.05 -0.04,-0.07 -0.04,-0.08 -0.09,-0.15 -0.14,-0.23l-0.01 -0.01c-0.04,-0.07 -0.09,-0.14 -0.14,-0.21 -0.01,-0.02 -0.03,-0.05 -0.04,-0.07 -0.04,-0.05 -0.08,-0.11 -0.11,-0.16 -0.02,-0.02 -0.04,-0.04 -0.05,-0.07 -0.05,-0.06 -0.09,-0.12 -0.14,-0.18 -0.01,-0.01 -0.01,-0.02 -0.02,-0.03 -0.05,-0.08 -0.11,-0.15 -0.16,-0.22 -0.02,-0.02 -0.03,-0.03 -0.05,-0.05 -0.04,-0.06 -0.08,-0.11 -0.12,-0.16 -0.02,-0.02 -0.04,-0.04 -0.06,-0.06 -0.04,-0.06 -0.09,-0.11 -0.14,-0.17 -0.01,-0.01 -0.02,-0.02 -0.03,-0.04 -0.06,-0.07 -0.12,-0.13 -0.18,-0.2 -0.01,-0.01 -0.03,-0.03 -0.04,-0.04 -0.05,-0.06 -0.1,-0.11 -0.14,-0.16 -0.02,-0.02 -0.04,-0.04 -0.06,-0.06 -0.05,-0.05 -0.09,-0.09 -0.14,-0.14 -0.02,-0.02 -0.04,-0.04 -0.05,-0.05 -0.07,-0.07 -0.13,-0.13 -0.19,-0.19 -0.01,-0.01 -0.02,-0.02 -0.03,-0.02 -0.06,-0.06 -0.11,-0.11 -0.17,-0.16 -0.02,-0.02 -0.04,-0.04 -0.06,-0.06 -0.05,-0.04 -0.1,-0.08 -0.15,-0.13 -0.02,-0.01 -0.04,-0.03 -0.06,-0.05 -0.06,-0.06 -0.13,-0.11 -0.2,-0.17l0 0c-0.07,-0.06 -0.14,-0.11 -0.21,-0.17 -0.02,-0.02 -0.04,-0.03 -0.06,-0.05 -0.05,-0.04 -0.11,-0.08 -0.16,-0.12 -0.02,-0.01 -0.04,-0.03 -0.07,-0.05 -0.05,-0.04 -0.11,-0.09 -0.17,-0.13 -0.02,-0.01 -0.03,-0.02 -0.04,-0.03 -0.07,-0.05 -0.15,-0.1 -0.22,-0.15 -0.02,-0.01 -0.04,-0.03 -0.06,-0.04 -0.06,-0.04 -0.11,-0.07 -0.17,-0.11 -0.02,-0.02 -0.05,-0.03 -0.07,-0.05 -0.06,-0.03 -0.12,-0.07 -0.17,-0.11 -0.02,-0.01 -0.04,-0.02 -0.06,-0.03 -0.08,-0.05 -0.16,-0.09 -0.23,-0.14 -0.02,-0.01 -0.03,-0.01 -0.05,-0.02 -0.06,-0.04 -0.12,-0.07 -0.19,-0.11 -0.02,-0.01 -0.05,-0.03 -0.07,-0.04 -0.06,-0.03 -0.12,-0.06 -0.18,-0.09 -0.02,-0.02 -0.04,-0.03 -0.07,-0.04 -0.08,-0.04 -0.16,-0.08 -0.24,-0.12l-0.01 -0.01c-0.08,-0.03 -0.16,-0.07 -0.23,-0.1 -0.03,-0.02 -0.05,-0.03 -0.08,-0.04 -0.06,-0.02 -0.12,-0.05 -0.18,-0.08 -0.02,-0.01 -0.05,-0.02 -0.07,-0.03 -0.08,-0.03 -0.16,-0.06 -0.24,-0.1l-0.01 0 -0.01 -0.01 0 0c-1.39,-0.55 -2.91,-0.85 -4.49,-0.85l-5.92 0c-6.76,0 -12.29,5.53 -12.29,12.29l0 7.73c0,0.38 0.02,0.76 0.05,1.13 -0.03,0.62 -0.05,1.25 -0.05,1.9l0 18.51c0,22.26 -16.43,33.25 -35.21,24.95z"/>
 </g>
</svg>
